<svg width="101" height="80" viewBox="0 0 101 80" fill="none" xmlns="http://www.w3.org/2000/svg">
<path d="M29.16 34H20.28L10.88 19.76V34H2V5.68H10.88L20.28 20.16V5.68H29.16V34ZM46.9719 34.28C44.3052 34.28 41.8519 33.6533 39.6119 32.4C37.3985 31.1467 35.6385 29.4133 34.3319 27.2C33.0252 24.9867 32.3719 22.4933 32.3719 19.72C32.3719 16.9467 33.0252 14.4533 34.3319 12.24C35.6385 10.0267 37.3985 8.30667 39.6119 7.08C41.8519 5.82667 44.3052 5.2 46.9719 5.2C49.6385 5.2 52.0785 5.82667 54.2919 7.08C56.5052 8.30667 58.2519 10.0267 59.5319 12.24C60.8385 14.4533 61.4919 16.9467 61.4919 19.72C61.4919 22.4933 60.8385 24.9867 59.5319 27.2C58.2519 29.4133 56.4919 31.1467 54.2519 32.4C52.0385 33.6533 49.6119 34.28 46.9719 34.28ZM46.9719 26C48.7319 26 50.0919 25.44 51.0519 24.32C52.0119 23.1733 52.4919 21.64 52.4919 19.72C52.4919 17.7733 52.0119 16.24 51.0519 15.12C50.0919 13.9733 48.7319 13.4 46.9719 13.4C45.1852 13.4 43.8119 13.9733 42.8519 15.12C41.8919 16.24 41.4119 17.7733 41.4119 19.72C41.4119 21.64 41.8919 23.1733 42.8519 24.32C43.8119 25.44 45.1852 26 46.9719 26ZM98.7353 5.68V34H89.8953V19.88L85.5353 34H77.9353L73.5753 19.88V34H64.6953V5.68H75.5753L81.8153 22.68L87.8953 5.68H98.7353ZM29.16 74H20.28L10.88 59.76V74H2V45.68H10.88L20.28 60.16V45.68H29.16V74ZM46.9719 74.28C44.3052 74.28 41.8519 73.6533 39.6119 72.4C37.3985 71.1467 35.6385 69.4133 34.3319 67.2C33.0252 64.9867 32.3719 62.4933 32.3719 59.72C32.3719 56.9467 33.0252 54.4533 34.3319 52.24C35.6385 50.0267 37.3985 48.3067 39.6119 47.08C41.8519 45.8267 44.3052 45.2 46.9719 45.2C49.6385 45.2 52.0785 45.8267 54.2919 47.08C56.5052 48.3067 58.2519 50.0267 59.5319 52.24C60.8385 54.4533 61.4919 56.9467 61.4919 59.72C61.4919 62.4933 60.8385 64.9867 59.5319 67.2C58.2519 69.4133 56.4919 71.1467 54.2519 72.4C52.0385 73.6533 49.6119 74.28 46.9719 74.28ZM46.9719 66C48.7319 66 50.0919 65.44 51.0519 64.32C52.0119 63.1733 52.4919 61.64 52.4919 59.72C52.4919 57.7733 52.0119 56.24 51.0519 55.12C50.0919 53.9733 48.7319 53.4 46.9719 53.4C45.1852 53.4 43.8119 53.9733 42.8519 55.12C41.8919 56.24 41.4119 57.7733 41.4119 59.72C41.4119 61.64 41.8919 63.1733 42.8519 64.32C43.8119 65.44 45.1852 66 46.9719 66ZM98.7353 45.68V74H89.8953V59.88L85.5353 74H77.9353L73.5753 59.88V74H64.6953V45.68H75.5753L81.8153 62.68L87.8953 45.68H98.7353Z" fill="white"/>
<path d="M33.0231 50.284C34.1338 51.8456 37.2585 54.7428 40.8713 53.8385C44.4842 52.9341 46.3276 50.0732 46.7977 48.7558C47.0241 50.6187 48.0527 54.5364 50.3562 55.3035C53.2357 56.2624 56.0576 53.1566 56.8477 52.4789C57.6379 51.8013 54.3647 55.9798 56.3978 58.3504C58.0242 60.2468 61.8174 58.2736 63.5107 57.0499C61.0446 53.9079 55.6833 47.4435 53.9669 46.7214C51.8214 45.8187 47.1337 39.5536 33.0231 50.284Z" fill="#1E1E1E" stroke="#1E1E1E"/>
<path d="M53.9609 48.2405L60.7689 40.4757L62.6707 42.6926L54.5391 48.7326L53.9609 48.2405Z" fill="white"/>
<path d="M48.5998 45.8711L45.1112 37.3188L49.0625 36.8932L49.6701 45.785L48.5998 45.8711Z" fill="white"/>
<path d="M53.9609 48.2405L60.7689 40.4757L62.6707 42.6926L54.5391 48.7326L53.9609 48.2405Z" stroke="white"/>
<path d="M48.5998 45.8711L45.1112 37.3188L49.0625 36.8932L49.6701 45.785L48.5998 45.8711Z" stroke="white"/>
</svg>
